<svg xmlns="http://www.w3.org/2000/svg" xmlns:xlink="http://www.w3.org/1999/xlink" width="128" zoomAndPan="magnify" viewBox="0 0 96 95.999999" height="128" preserveAspectRatio="xMidYMid meet" version="1.0"><defs><g/><clipPath id="37e22c751c"><path d="M 26.34375 9.601562 L 69.84375 9.601562 L 69.84375 56.851562 L 26.34375 56.851562 Z M 26.34375 9.601562 " clip-rule="nonzero"/></clipPath></defs><rect x="-9.6" width="115.2" fill="#ffffff" y="-9.6" height="115.199999" fill-opacity="1"/><rect x="-9.6" width="115.2" fill="#efeaea" y="-9.6" height="115.199999" fill-opacity="1"/><g clip-path="url(#37e22c751c)"><path fill="#2e2c3b" d="M 69.46875 16.070312 C 70.304688 24.929688 68.207031 36.054688 63.46875 45.25 C 60.117188 46.171875 51.636719 45.003906 48.195312 44.480469 L 48.195312 41.765625 L 42.796875 41.566406 L 44.21875 37.988281 C 43.53125 37.820312 42.863281 37.582031 42.214844 37.292969 L 41.199219 39.121094 L 42.175781 39.710938 L 34.015625 54.535156 C 32.828125 56.699219 29.992188 57.320312 28.003906 55.851562 C 26.296875 54.585938 25.847656 52.191406 26.972656 50.390625 L 35.996094 36.015625 L 37.167969 36.71875 L 38.476562 34.730469 C 29.960938 26.195312 37.535156 11.496094 49.5625 13.796875 L 50.554688 9.601562 L 67.832031 11.847656 C 67.917969 13.007812 67.988281 14.179688 68.003906 16.070312 Z M 62.527344 44.074219 C 63.492188 42.089844 69.15625 29.804688 68.214844 17.4375 L 68.003906 17.4375 C 67.941406 25.613281 66.753906 35.652344 62.011719 42.277344 L 49.5625 41.816406 L 49.5625 43.308594 C 51.773438 43.617188 59.636719 44.660156 62.527344 44.074219 Z M 61.324219 40.886719 C 67.183594 32.308594 66.703125 16.242188 66.539062 13.058594 L 51.605469 11.117188 L 50.894531 14.128906 C 55.949219 15.691406 59.632812 20.40625 59.632812 25.972656 C 59.632812 33.390625 53.097656 39.25 45.582031 38.253906 L 44.777344 40.277344 Z M 42.582031 25.980469 L 58.265625 25.980469 C 58.265625 25.441406 58.226562 24.90625 58.140625 24.34375 L 42.96875 24.761719 L 42.960938 24.304688 L 58.058594 23.882812 C 57.949219 23.300781 57.792969 22.734375 57.59375 22.1875 L 43.789062 22.503906 L 43.78125 22.046875 L 46.761719 21.976562 L 57.410156 21.738281 C 55.179688 16.375 49.140625 13.621094 43.609375 15.554688 C 43.515625 16.359375 43.300781 18.183594 42.898438 20.429688 C 42.695312 21.570312 42.445312 22.824219 42.132812 24.105469 C 41.847656 25.324219 41.515625 26.5625 41.132812 27.773438 C 40.503906 29.730469 39.730469 31.589844 38.804688 33.070312 C 38.964844 33.261719 39.136719 33.445312 39.308594 33.625 C 41.046875 32.15625 43.625 33.933594 42.847656 36.078125 C 49.199219 38.859375 56.589844 35.058594 58.023438 28.234375 L 41.773438 28.234375 L 41.773438 27.777344 L 58.109375 27.777344 C 58.183594 27.339844 58.226562 26.886719 58.253906 26.433594 L 42.582031 26.433594 Z M 41.5 35.753906 C 41.859375 35.105469 41.300781 34.351562 40.589844 34.484375 C 40.105469 34.574219 40.144531 34.667969 38.339844 37.425781 L 40.023438 38.429688 Z M 37.925781 31.875 C 40.550781 27.269531 41.769531 19.210938 42.148438 16.1875 C 36.441406 19.167969 34.445312 26.378906 37.925781 31.875 Z M 40.332031 40.210938 L 36.433594 37.878906 L 28.132812 51.117188 C 26.867188 53.132812 28.65625 55.734375 31.015625 55.21875 C 32.65625 54.867188 32.265625 54.882812 40.332031 40.210938 Z M 40.332031 40.210938 " fill-opacity="1" fill-rule="nonzero"/></g><path fill="#91b88e" d="M 68.21875 17.4375 C 69.15625 29.804688 63.492188 42.089844 62.53125 44.074219 C 59.640625 44.652344 51.773438 43.617188 49.5625 43.300781 L 49.5625 41.816406 L 62.015625 42.277344 C 66.761719 35.652344 67.945312 25.613281 68.007812 17.4375 Z M 68.21875 17.4375 " fill-opacity="1" fill-rule="nonzero"/><path fill="#91b88e" d="M 58.265625 25.980469 L 42.582031 25.980469 L 42.582031 26.4375 L 58.253906 26.4375 C 58.230469 26.894531 58.183594 27.34375 58.109375 27.785156 L 41.773438 27.785156 L 41.132812 27.777344 C 41.515625 26.570312 41.847656 25.328125 42.132812 24.113281 L 42.960938 24.304688 L 42.96875 24.761719 L 58.136719 24.335938 C 58.222656 24.90625 58.265625 25.441406 58.265625 25.980469 Z M 58.265625 25.980469 " fill-opacity="1" fill-rule="nonzero"/><path fill="#91b88e" d="M 58.066406 23.882812 L 42.964844 24.304688 L 42.140625 24.113281 C 42.445312 22.832031 42.695312 21.574219 42.90625 20.433594 L 43.796875 20.609375 L 43.796875 21.066406 L 46.75 21.066406 L 46.769531 21.976562 L 43.789062 22.046875 L 43.800781 22.503906 L 57.605469 22.1875 C 57.796875 22.734375 57.949219 23.300781 58.066406 23.882812 Z M 58.066406 23.882812 " fill-opacity="1" fill-rule="nonzero"/><path fill="#91b88e" d="M 41.773438 28.238281 L 58.023438 28.238281 C 56.589844 35.0625 49.199219 38.863281 42.847656 36.082031 C 43.625 33.9375 41.046875 32.15625 39.308594 33.632812 C 39.136719 33.449219 38.964844 33.265625 38.804688 33.074219 C 39.730469 31.589844 40.503906 29.734375 41.132812 27.777344 L 41.773438 27.785156 Z M 53.984375 31.070312 L 53.984375 30.613281 L 52.957031 30.613281 L 52.957031 31.070312 Z M 53.585938 29.675781 L 53.585938 29.21875 L 52.335938 29.21875 L 52.335938 29.675781 Z M 53.585938 29.675781 " fill-opacity="1" fill-rule="nonzero"/><path fill="#91b88e" d="M 57.410156 21.738281 L 46.761719 21.976562 L 46.738281 21.066406 L 46.738281 20.609375 L 43.785156 20.609375 L 42.894531 20.433594 C 43.292969 18.1875 43.511719 16.363281 43.601562 15.5625 C 49.140625 13.621094 55.179688 16.375 57.410156 21.738281 Z M 49.574219 21.066406 L 49.574219 20.609375 L 48.355469 20.609375 L 48.355469 21.066406 Z M 49.574219 21.066406 " fill-opacity="1" fill-rule="nonzero"/><path fill="#2e2c3b" d="M 52.957031 30.613281 L 53.984375 30.613281 L 53.984375 31.070312 L 52.957031 31.070312 Z M 52.957031 30.613281 " fill-opacity="1" fill-rule="nonzero"/><path fill="#2e2c3b" d="M 52.335938 29.21875 L 53.585938 29.21875 L 53.585938 29.675781 L 52.335938 29.675781 Z M 52.335938 29.21875 " fill-opacity="1" fill-rule="nonzero"/><path fill="#2e2c3b" d="M 48.363281 20.609375 L 49.578125 20.609375 L 49.578125 21.066406 L 48.363281 21.066406 Z M 48.363281 20.609375 " fill-opacity="1" fill-rule="nonzero"/><path fill="#2e2c3b" d="M 43.789062 20.609375 L 46.742188 20.609375 L 46.742188 21.066406 L 43.789062 21.066406 Z M 43.789062 20.609375 " fill-opacity="1" fill-rule="nonzero"/><path fill="#91b88e" d="M 42.148438 16.1875 C 41.769531 19.210938 40.550781 27.269531 37.925781 31.875 C 34.445312 26.378906 36.441406 19.167969 42.148438 16.1875 Z M 42.148438 16.1875 " fill-opacity="1" fill-rule="nonzero"/><g fill="#2e2c3b" fill-opacity="1"><g transform="translate(22.894799, 70.922595)"><g><path d="M 2.609375 -1.59375 C 2.609375 -1.34375 2.625 -1.140625 2.65625 -0.984375 C 2.6875 -0.828125 2.75 -0.703125 2.84375 -0.609375 C 2.945312 -0.523438 3.085938 -0.46875 3.265625 -0.4375 C 3.453125 -0.40625 3.695312 -0.382812 4 -0.375 L 4 0 L 0.453125 0 L 0.453125 -0.375 C 0.679688 -0.382812 0.867188 -0.40625 1.015625 -0.4375 C 1.160156 -0.46875 1.269531 -0.523438 1.34375 -0.609375 C 1.425781 -0.691406 1.484375 -0.804688 1.515625 -0.953125 C 1.546875 -1.097656 1.5625 -1.289062 1.5625 -1.53125 L 1.5625 -6.203125 C 1.5625 -6.429688 1.546875 -6.617188 1.515625 -6.765625 C 1.492188 -6.910156 1.445312 -7.023438 1.375 -7.109375 C 1.3125 -7.191406 1.210938 -7.25 1.078125 -7.28125 C 0.941406 -7.3125 0.765625 -7.332031 0.546875 -7.34375 L 0.546875 -7.71875 L 6.34375 -7.71875 L 6.453125 -5.8125 L 6.109375 -5.8125 C 6.066406 -6.09375 6 -6.328125 5.90625 -6.515625 C 5.820312 -6.703125 5.703125 -6.847656 5.546875 -6.953125 C 5.390625 -7.054688 5.191406 -7.128906 4.953125 -7.171875 C 4.710938 -7.222656 4.410156 -7.25 4.046875 -7.25 L 2.78125 -7.25 C 2.664062 -7.25 2.609375 -7.191406 2.609375 -7.078125 L 2.609375 -4.046875 C 2.929688 -4.046875 3.207031 -4.0625 3.4375 -4.09375 C 3.664062 -4.132812 3.851562 -4.203125 4 -4.296875 C 4.15625 -4.390625 4.269531 -4.515625 4.34375 -4.671875 C 4.425781 -4.835938 4.476562 -5.046875 4.5 -5.296875 L 4.859375 -5.296875 L 4.859375 -2.359375 L 4.5 -2.359375 C 4.46875 -2.609375 4.414062 -2.816406 4.34375 -2.984375 C 4.269531 -3.148438 4.160156 -3.28125 4.015625 -3.375 C 3.867188 -3.46875 3.679688 -3.535156 3.453125 -3.578125 C 3.234375 -3.617188 2.953125 -3.640625 2.609375 -3.640625 Z M 2.609375 -1.59375 "/></g></g></g><g fill="#2e2c3b" fill-opacity="1"><g transform="translate(29.615728, 70.922595)"><g><path d="M 2.609375 -1.890625 C 2.609375 -1.554688 2.617188 -1.289062 2.640625 -1.09375 C 2.671875 -0.90625 2.722656 -0.753906 2.796875 -0.640625 C 2.878906 -0.535156 2.988281 -0.46875 3.125 -0.4375 C 3.269531 -0.40625 3.460938 -0.382812 3.703125 -0.375 L 3.703125 0 L 0.453125 0 L 0.453125 -0.375 C 0.679688 -0.382812 0.867188 -0.40625 1.015625 -0.4375 C 1.160156 -0.476562 1.269531 -0.546875 1.34375 -0.640625 C 1.425781 -0.742188 1.484375 -0.890625 1.515625 -1.078125 C 1.546875 -1.265625 1.5625 -1.515625 1.5625 -1.828125 L 1.5625 -5.890625 C 1.5625 -6.171875 1.546875 -6.40625 1.515625 -6.59375 C 1.492188 -6.78125 1.445312 -6.925781 1.375 -7.03125 C 1.3125 -7.132812 1.210938 -7.207031 1.078125 -7.25 C 0.941406 -7.300781 0.765625 -7.332031 0.546875 -7.34375 L 0.546875 -7.71875 L 3.59375 -7.71875 L 3.59375 -7.34375 C 3.382812 -7.332031 3.210938 -7.300781 3.078125 -7.25 C 2.953125 -7.207031 2.851562 -7.128906 2.78125 -7.015625 C 2.707031 -6.910156 2.660156 -6.757812 2.640625 -6.5625 C 2.617188 -6.375 2.609375 -6.128906 2.609375 -5.828125 Z M 2.609375 -1.890625 "/></g></g></g><g fill="#2e2c3b" fill-opacity="1"><g transform="translate(33.778691, 70.922595)"><g><path d="M 6.96875 0.09375 L 2.203125 -6.171875 L 2.15625 -6.171875 L 2.15625 -1.890625 C 2.15625 -1.554688 2.164062 -1.289062 2.1875 -1.09375 C 2.21875 -0.90625 2.265625 -0.753906 2.328125 -0.640625 C 2.398438 -0.535156 2.5 -0.46875 2.625 -0.4375 C 2.757812 -0.40625 2.9375 -0.382812 3.15625 -0.375 L 3.15625 0 L 0.453125 0 L 0.453125 -0.375 C 0.679688 -0.382812 0.867188 -0.40625 1.015625 -0.4375 C 1.160156 -0.476562 1.269531 -0.546875 1.34375 -0.640625 C 1.425781 -0.742188 1.484375 -0.890625 1.515625 -1.078125 C 1.546875 -1.265625 1.5625 -1.515625 1.5625 -1.828125 L 1.5625 -5.890625 C 1.5625 -6.171875 1.546875 -6.40625 1.515625 -6.59375 C 1.492188 -6.78125 1.445312 -6.925781 1.375 -7.03125 C 1.3125 -7.132812 1.210938 -7.207031 1.078125 -7.25 C 0.941406 -7.300781 0.765625 -7.332031 0.546875 -7.34375 L 0.546875 -7.71875 L 2.53125 -7.71875 L 6.921875 -1.875 L 6.96875 -1.875 L 6.96875 -5.828125 C 6.96875 -6.148438 6.953125 -6.410156 6.921875 -6.609375 C 6.898438 -6.804688 6.851562 -6.957031 6.78125 -7.0625 C 6.71875 -7.175781 6.617188 -7.25 6.484375 -7.28125 C 6.359375 -7.3125 6.1875 -7.332031 5.96875 -7.34375 L 5.96875 -7.71875 L 8.671875 -7.71875 L 8.671875 -7.34375 C 8.429688 -7.332031 8.238281 -7.304688 8.09375 -7.265625 C 7.957031 -7.234375 7.847656 -7.164062 7.765625 -7.0625 C 7.679688 -6.96875 7.625 -6.828125 7.59375 -6.640625 C 7.570312 -6.453125 7.5625 -6.203125 7.5625 -5.890625 L 7.5625 0.09375 Z M 6.96875 0.09375 "/></g></g></g><g fill="#2e2c3b" fill-opacity="1"><g transform="translate(42.826867, 70.922595)"><g><path d="M 6.90625 -7.71875 L 7.1875 -7.71875 L 7.28125 -5.421875 L 6.90625 -5.421875 C 6.757812 -6.003906 6.472656 -6.460938 6.046875 -6.796875 C 5.628906 -7.128906 5.125 -7.296875 4.53125 -7.296875 C 4.125 -7.296875 3.757812 -7.21875 3.4375 -7.0625 C 3.113281 -6.90625 2.84375 -6.675781 2.625 -6.375 C 2.40625 -6.070312 2.238281 -5.703125 2.125 -5.265625 C 2.007812 -4.828125 1.953125 -4.335938 1.953125 -3.796875 C 1.953125 -2.710938 2.175781 -1.878906 2.625 -1.296875 C 3.070312 -0.722656 3.71875 -0.4375 4.5625 -0.4375 C 5.851562 -0.4375 6.679688 -1.125 7.046875 -2.5 L 7.46875 -2.5 L 7.46875 0 L 7.109375 0 L 6.875 -0.796875 C 6.175781 -0.203125 5.328125 0.09375 4.328125 0.09375 C 3.765625 0.09375 3.253906 0.00390625 2.796875 -0.171875 C 2.335938 -0.347656 1.945312 -0.601562 1.625 -0.9375 C 1.300781 -1.269531 1.050781 -1.671875 0.875 -2.140625 C 0.695312 -2.617188 0.609375 -3.148438 0.609375 -3.734375 C 0.609375 -4.335938 0.695312 -4.890625 0.875 -5.390625 C 1.0625 -5.898438 1.320312 -6.332031 1.65625 -6.6875 C 2 -7.050781 2.40625 -7.332031 2.875 -7.53125 C 3.351562 -7.726562 3.875 -7.828125 4.4375 -7.828125 C 4.84375 -7.828125 5.222656 -7.769531 5.578125 -7.65625 C 5.929688 -7.539062 6.316406 -7.359375 6.734375 -7.109375 Z M 6.90625 -7.71875 "/></g></g></g><g fill="#2e2c3b" fill-opacity="1"><g transform="translate(50.87192, 70.922595)"><g><path d="M 2.609375 -4.25 C 2.972656 -4.25 3.273438 -4.269531 3.515625 -4.3125 C 3.753906 -4.351562 3.945312 -4.421875 4.09375 -4.515625 C 4.238281 -4.609375 4.34375 -4.726562 4.40625 -4.875 C 4.46875 -5.019531 4.5 -5.191406 4.5 -5.390625 L 4.859375 -5.390625 L 4.859375 -2.65625 L 4.5 -2.65625 C 4.5 -2.851562 4.46875 -3.023438 4.40625 -3.171875 C 4.351562 -3.328125 4.253906 -3.453125 4.109375 -3.546875 C 3.972656 -3.640625 3.78125 -3.710938 3.53125 -3.765625 C 3.289062 -3.816406 2.984375 -3.84375 2.609375 -3.84375 L 2.609375 -1.578125 C 2.609375 -1.359375 2.632812 -1.175781 2.6875 -1.03125 C 2.738281 -0.882812 2.828125 -0.765625 2.953125 -0.671875 C 3.085938 -0.585938 3.257812 -0.523438 3.46875 -0.484375 C 3.6875 -0.453125 3.953125 -0.4375 4.265625 -0.4375 C 4.628906 -0.4375 4.929688 -0.457031 5.171875 -0.5 C 5.421875 -0.550781 5.628906 -0.632812 5.796875 -0.75 C 5.960938 -0.875 6.09375 -1.035156 6.1875 -1.234375 C 6.289062 -1.429688 6.378906 -1.675781 6.453125 -1.96875 L 6.828125 -1.96875 L 6.6875 0 L 0.453125 0 L 0.453125 -0.375 C 0.679688 -0.382812 0.867188 -0.40625 1.015625 -0.4375 C 1.160156 -0.46875 1.269531 -0.523438 1.34375 -0.609375 C 1.425781 -0.691406 1.484375 -0.804688 1.515625 -0.953125 C 1.546875 -1.097656 1.5625 -1.289062 1.5625 -1.53125 L 1.5625 -6.203125 C 1.5625 -6.429688 1.546875 -6.617188 1.515625 -6.765625 C 1.492188 -6.910156 1.445312 -7.023438 1.375 -7.109375 C 1.3125 -7.191406 1.210938 -7.25 1.078125 -7.28125 C 0.941406 -7.3125 0.765625 -7.332031 0.546875 -7.34375 L 0.546875 -7.71875 L 6.34375 -7.71875 L 6.4375 -5.953125 L 6.09375 -5.953125 C 6.050781 -6.222656 5.984375 -6.441406 5.890625 -6.609375 C 5.804688 -6.785156 5.679688 -6.921875 5.515625 -7.015625 C 5.359375 -7.117188 5.160156 -7.191406 4.921875 -7.234375 C 4.679688 -7.273438 4.390625 -7.296875 4.046875 -7.296875 L 2.78125 -7.296875 C 2.664062 -7.296875 2.609375 -7.238281 2.609375 -7.125 Z M 2.609375 -4.25 "/></g></g></g><g fill="#2e2c3b" fill-opacity="1"><g transform="translate(58.1546, 70.922595)"><g><path d="M 6.59375 -5.78125 C 6.59375 -5.425781 6.535156 -5.109375 6.421875 -4.828125 C 6.316406 -4.546875 6.140625 -4.304688 5.890625 -4.109375 C 5.648438 -3.921875 5.332031 -3.773438 4.9375 -3.671875 C 4.550781 -3.566406 4.078125 -3.515625 3.515625 -3.515625 L 2.609375 -3.515625 L 2.609375 -1.578125 C 2.609375 -1.328125 2.625 -1.125 2.65625 -0.96875 C 2.6875 -0.8125 2.75 -0.6875 2.84375 -0.59375 C 2.9375 -0.507812 3.078125 -0.453125 3.265625 -0.421875 C 3.453125 -0.390625 3.695312 -0.375 4 -0.375 L 4 0 L 0.453125 0 L 0.453125 -0.375 C 0.679688 -0.382812 0.867188 -0.40625 1.015625 -0.4375 C 1.160156 -0.46875 1.269531 -0.523438 1.34375 -0.609375 C 1.425781 -0.691406 1.484375 -0.804688 1.515625 -0.953125 C 1.546875 -1.097656 1.5625 -1.289062 1.5625 -1.53125 L 1.5625 -6.203125 C 1.5625 -6.429688 1.546875 -6.617188 1.515625 -6.765625 C 1.492188 -6.910156 1.445312 -7.023438 1.375 -7.109375 C 1.3125 -7.191406 1.210938 -7.25 1.078125 -7.28125 C 0.941406 -7.3125 0.765625 -7.332031 0.546875 -7.34375 L 0.546875 -7.71875 L 3.703125 -7.71875 C 4.617188 -7.71875 5.328125 -7.546875 5.828125 -7.203125 C 6.335938 -6.867188 6.59375 -6.394531 6.59375 -5.78125 Z M 2.609375 -4.015625 L 3.328125 -4.015625 C 3.992188 -4.015625 4.488281 -4.140625 4.8125 -4.390625 C 5.132812 -4.648438 5.296875 -5.078125 5.296875 -5.671875 C 5.296875 -6.234375 5.164062 -6.632812 4.90625 -6.875 C 4.65625 -7.125 4.253906 -7.25 3.703125 -7.25 L 2.78125 -7.25 C 2.664062 -7.25 2.609375 -7.191406 2.609375 -7.078125 Z M 2.609375 -4.015625 "/></g></g></g><g fill="#2e2c3b" fill-opacity="1"><g transform="translate(65.04606, 70.922595)"><g><path d="M 7.890625 -5.8125 L 7.46875 -5.8125 C 7.445312 -6.09375 7.398438 -6.332031 7.328125 -6.53125 C 7.253906 -6.726562 7.148438 -6.878906 7.015625 -6.984375 C 6.878906 -7.097656 6.707031 -7.175781 6.5 -7.21875 C 6.289062 -7.269531 6.046875 -7.296875 5.765625 -7.296875 C 5.515625 -7.296875 5.3125 -7.289062 5.15625 -7.28125 C 5.007812 -7.269531 4.894531 -7.25 4.8125 -7.21875 C 4.726562 -7.195312 4.675781 -7.164062 4.65625 -7.125 C 4.632812 -7.09375 4.625 -7.046875 4.625 -6.984375 L 4.625 -1.609375 C 4.625 -1.398438 4.640625 -1.21875 4.671875 -1.0625 C 4.703125 -0.90625 4.757812 -0.78125 4.84375 -0.6875 C 4.9375 -0.59375 5.066406 -0.519531 5.234375 -0.46875 C 5.410156 -0.414062 5.640625 -0.382812 5.921875 -0.375 L 5.921875 0 L 2.125 0 L 2.125 -0.375 C 2.40625 -0.382812 2.628906 -0.414062 2.796875 -0.46875 C 2.972656 -0.519531 3.109375 -0.59375 3.203125 -0.6875 C 3.296875 -0.78125 3.359375 -0.90625 3.390625 -1.0625 C 3.421875 -1.21875 3.4375 -1.398438 3.4375 -1.609375 L 3.4375 -6.984375 C 3.4375 -7.046875 3.421875 -7.09375 3.390625 -7.125 C 3.367188 -7.164062 3.320312 -7.195312 3.25 -7.21875 C 3.1875 -7.25 3.085938 -7.269531 2.953125 -7.28125 C 2.828125 -7.289062 2.660156 -7.296875 2.453125 -7.296875 C 2.191406 -7.296875 1.945312 -7.285156 1.71875 -7.265625 C 1.5 -7.242188 1.304688 -7.179688 1.140625 -7.078125 C 0.972656 -6.984375 0.835938 -6.835938 0.734375 -6.640625 C 0.640625 -6.441406 0.585938 -6.164062 0.578125 -5.8125 L 0.203125 -5.8125 L 0.203125 -7.71875 L 7.78125 -7.71875 Z M 7.890625 -5.8125 "/></g></g></g><g fill="#2e2c3b" fill-opacity="1"><g transform="translate(24.432724, 77.802358)"><g><path d="M 2.125 -0.34375 C 2.25 -0.34375 2.359375 -0.359375 2.453125 -0.390625 C 2.546875 -0.421875 2.628906 -0.457031 2.703125 -0.5 C 2.773438 -0.550781 2.835938 -0.601562 2.890625 -0.65625 C 2.953125 -0.71875 3.003906 -0.773438 3.046875 -0.828125 C 3.078125 -0.804688 3.097656 -0.773438 3.109375 -0.734375 C 3.128906 -0.691406 3.140625 -0.648438 3.140625 -0.609375 C 3.140625 -0.535156 3.117188 -0.460938 3.078125 -0.390625 C 3.035156 -0.316406 2.972656 -0.242188 2.890625 -0.171875 C 2.804688 -0.109375 2.691406 -0.0546875 2.546875 -0.015625 C 2.398438 0.0234375 2.21875 0.046875 2 0.046875 C 1.707031 0.046875 1.453125 0.00390625 1.234375 -0.078125 C 1.023438 -0.171875 0.847656 -0.296875 0.703125 -0.453125 C 0.554688 -0.617188 0.445312 -0.8125 0.375 -1.03125 C 0.3125 -1.257812 0.28125 -1.515625 0.28125 -1.796875 C 0.28125 -2.054688 0.316406 -2.300781 0.390625 -2.53125 C 0.460938 -2.757812 0.566406 -2.953125 0.703125 -3.109375 C 0.847656 -3.273438 1.03125 -3.398438 1.25 -3.484375 C 1.46875 -3.578125 1.71875 -3.625 2 -3.625 C 2.1875 -3.625 2.351562 -3.609375 2.5 -3.578125 C 2.644531 -3.546875 2.765625 -3.503906 2.859375 -3.453125 C 2.953125 -3.398438 3.019531 -3.335938 3.0625 -3.265625 C 3.113281 -3.191406 3.140625 -3.117188 3.140625 -3.046875 C 3.140625 -2.984375 3.125 -2.921875 3.09375 -2.859375 C 3.070312 -2.804688 3.035156 -2.757812 2.984375 -2.71875 C 2.929688 -2.6875 2.863281 -2.660156 2.78125 -2.640625 C 2.707031 -2.617188 2.617188 -2.609375 2.515625 -2.609375 C 2.515625 -2.691406 2.503906 -2.769531 2.484375 -2.84375 C 2.472656 -2.925781 2.441406 -3 2.390625 -3.0625 C 2.347656 -3.132812 2.289062 -3.191406 2.21875 -3.234375 C 2.15625 -3.273438 2.070312 -3.296875 1.96875 -3.296875 C 1.8125 -3.296875 1.675781 -3.257812 1.5625 -3.1875 C 1.457031 -3.125 1.367188 -3.03125 1.296875 -2.90625 C 1.234375 -2.78125 1.1875 -2.625 1.15625 -2.4375 C 1.125 -2.25 1.109375 -2.035156 1.109375 -1.796875 C 1.109375 -1.546875 1.125 -1.332031 1.15625 -1.15625 C 1.195312 -0.976562 1.257812 -0.828125 1.34375 -0.703125 C 1.425781 -0.585938 1.53125 -0.5 1.65625 -0.4375 C 1.78125 -0.375 1.9375 -0.34375 2.125 -0.34375 Z M 2.125 -0.34375 "/></g></g></g><g fill="#2e2c3b" fill-opacity="1"><g transform="translate(28.269976, 77.802358)"><g><path d="M 3.65625 -1.796875 C 3.65625 -1.515625 3.617188 -1.257812 3.546875 -1.03125 C 3.472656 -0.8125 3.363281 -0.617188 3.21875 -0.453125 C 3.070312 -0.296875 2.894531 -0.171875 2.6875 -0.078125 C 2.476562 0.00390625 2.238281 0.046875 1.96875 0.046875 C 1.6875 0.046875 1.4375 0.00390625 1.21875 -0.078125 C 1.007812 -0.171875 0.832031 -0.296875 0.6875 -0.453125 C 0.550781 -0.617188 0.445312 -0.8125 0.375 -1.03125 C 0.3125 -1.257812 0.28125 -1.515625 0.28125 -1.796875 C 0.28125 -2.066406 0.3125 -2.316406 0.375 -2.546875 C 0.445312 -2.773438 0.550781 -2.96875 0.6875 -3.125 C 0.832031 -3.28125 1.007812 -3.398438 1.21875 -3.484375 C 1.4375 -3.578125 1.6875 -3.625 1.96875 -3.625 C 2.238281 -3.625 2.476562 -3.578125 2.6875 -3.484375 C 2.90625 -3.398438 3.082031 -3.28125 3.21875 -3.125 C 3.363281 -2.96875 3.472656 -2.773438 3.546875 -2.546875 C 3.617188 -2.316406 3.65625 -2.066406 3.65625 -1.796875 Z M 1.109375 -1.796875 C 1.109375 -1.554688 1.125 -1.34375 1.15625 -1.15625 C 1.1875 -0.96875 1.234375 -0.804688 1.296875 -0.671875 C 1.367188 -0.546875 1.457031 -0.445312 1.5625 -0.375 C 1.675781 -0.3125 1.8125 -0.28125 1.96875 -0.28125 C 2.125 -0.28125 2.253906 -0.3125 2.359375 -0.375 C 2.472656 -0.445312 2.5625 -0.546875 2.625 -0.671875 C 2.695312 -0.804688 2.742188 -0.96875 2.765625 -1.15625 C 2.796875 -1.34375 2.8125 -1.554688 2.8125 -1.796875 C 2.8125 -2.035156 2.796875 -2.242188 2.765625 -2.421875 C 2.742188 -2.609375 2.695312 -2.765625 2.625 -2.890625 C 2.5625 -3.023438 2.472656 -3.125 2.359375 -3.1875 C 2.253906 -3.257812 2.125 -3.296875 1.96875 -3.296875 C 1.8125 -3.296875 1.675781 -3.257812 1.5625 -3.1875 C 1.457031 -3.125 1.367188 -3.023438 1.296875 -2.890625 C 1.234375 -2.765625 1.1875 -2.609375 1.15625 -2.421875 C 1.125 -2.242188 1.109375 -2.035156 1.109375 -1.796875 Z M 1.109375 -1.796875 "/></g></g></g><g fill="#2e2c3b" fill-opacity="1"><g transform="translate(32.702486, 77.802358)"><g><path d="M 0.140625 -0.265625 L 0.34375 -0.265625 C 0.382812 -0.265625 0.421875 -0.265625 0.453125 -0.265625 C 0.484375 -0.273438 0.507812 -0.289062 0.53125 -0.3125 C 0.550781 -0.332031 0.566406 -0.363281 0.578125 -0.40625 C 0.597656 -0.445312 0.609375 -0.5 0.609375 -0.5625 L 0.609375 -3 C 0.609375 -3.0625 0.597656 -3.113281 0.578125 -3.15625 C 0.566406 -3.195312 0.550781 -3.226562 0.53125 -3.25 C 0.507812 -3.269531 0.484375 -3.285156 0.453125 -3.296875 C 0.421875 -3.304688 0.382812 -3.3125 0.34375 -3.3125 L 0.140625 -3.3125 L 0.140625 -3.5625 L 1.75 -3.5625 C 2.21875 -3.5625 2.5625 -3.484375 2.78125 -3.328125 C 3.007812 -3.171875 3.125 -2.941406 3.125 -2.640625 C 3.125 -2.515625 3.101562 -2.398438 3.0625 -2.296875 C 3.019531 -2.191406 2.96875 -2.097656 2.90625 -2.015625 C 2.84375 -1.941406 2.769531 -1.878906 2.6875 -1.828125 C 2.601562 -1.773438 2.519531 -1.734375 2.4375 -1.703125 L 3.03125 -0.671875 C 3.070312 -0.597656 3.113281 -0.535156 3.15625 -0.484375 C 3.195312 -0.429688 3.238281 -0.390625 3.28125 -0.359375 C 3.320312 -0.328125 3.363281 -0.300781 3.40625 -0.28125 C 3.445312 -0.269531 3.488281 -0.265625 3.53125 -0.265625 L 3.5625 -0.265625 L 3.5625 0 L 3.390625 0 C 3.242188 0 3.113281 -0.00390625 3 -0.015625 C 2.882812 -0.0234375 2.785156 -0.046875 2.703125 -0.078125 C 2.617188 -0.117188 2.546875 -0.164062 2.484375 -0.21875 C 2.421875 -0.28125 2.363281 -0.359375 2.3125 -0.453125 L 1.71875 -1.546875 L 1.390625 -1.546875 L 1.390625 -0.5625 C 1.390625 -0.5 1.394531 -0.445312 1.40625 -0.40625 C 1.425781 -0.363281 1.445312 -0.332031 1.46875 -0.3125 C 1.488281 -0.289062 1.515625 -0.273438 1.546875 -0.265625 C 1.578125 -0.265625 1.613281 -0.265625 1.65625 -0.265625 L 1.859375 -0.265625 L 1.859375 0 L 0.140625 0 Z M 1.390625 -1.84375 L 1.671875 -1.84375 C 1.785156 -1.84375 1.878906 -1.859375 1.953125 -1.890625 C 2.035156 -1.921875 2.097656 -1.960938 2.140625 -2.015625 C 2.191406 -2.078125 2.226562 -2.15625 2.25 -2.25 C 2.269531 -2.34375 2.28125 -2.453125 2.28125 -2.578125 C 2.28125 -2.703125 2.269531 -2.804688 2.25 -2.890625 C 2.226562 -2.984375 2.191406 -3.054688 2.140625 -3.109375 C 2.085938 -3.171875 2.019531 -3.210938 1.9375 -3.234375 C 1.863281 -3.265625 1.773438 -3.28125 1.671875 -3.28125 L 1.390625 -3.28125 Z M 1.390625 -1.84375 "/></g></g></g><g fill="#2e2c3b" fill-opacity="1"><g transform="translate(36.734905, 77.802358)"><g><path d="M 3.046875 -2.515625 C 3.046875 -2.359375 3.019531 -2.210938 2.96875 -2.078125 C 2.914062 -1.941406 2.828125 -1.816406 2.703125 -1.703125 C 2.585938 -1.597656 2.4375 -1.515625 2.25 -1.453125 C 2.0625 -1.390625 1.832031 -1.359375 1.5625 -1.359375 L 1.390625 -1.359375 L 1.390625 -0.5625 C 1.390625 -0.5 1.394531 -0.445312 1.40625 -0.40625 C 1.425781 -0.363281 1.445312 -0.332031 1.46875 -0.3125 C 1.5 -0.289062 1.53125 -0.273438 1.5625 -0.265625 C 1.59375 -0.265625 1.625 -0.265625 1.65625 -0.265625 L 1.96875 -0.265625 L 1.96875 0 L 0.140625 0 L 0.140625 -0.265625 L 0.34375 -0.265625 C 0.382812 -0.265625 0.421875 -0.265625 0.453125 -0.265625 C 0.484375 -0.273438 0.507812 -0.289062 0.53125 -0.3125 C 0.550781 -0.34375 0.566406 -0.378906 0.578125 -0.421875 C 0.597656 -0.460938 0.609375 -0.519531 0.609375 -0.59375 L 0.609375 -3 C 0.609375 -3.0625 0.597656 -3.113281 0.578125 -3.15625 C 0.566406 -3.195312 0.550781 -3.226562 0.53125 -3.25 C 0.507812 -3.269531 0.484375 -3.285156 0.453125 -3.296875 C 0.421875 -3.304688 0.382812 -3.3125 0.34375 -3.3125 L 0.140625 -3.3125 L 0.140625 -3.5625 L 1.671875 -3.5625 C 1.898438 -3.5625 2.097656 -3.535156 2.265625 -3.484375 C 2.441406 -3.441406 2.585938 -3.375 2.703125 -3.28125 C 2.816406 -3.1875 2.898438 -3.070312 2.953125 -2.9375 C 3.015625 -2.8125 3.046875 -2.671875 3.046875 -2.515625 Z M 1.390625 -1.65625 L 1.515625 -1.65625 C 1.640625 -1.65625 1.742188 -1.671875 1.828125 -1.703125 C 1.910156 -1.734375 1.976562 -1.78125 2.03125 -1.84375 C 2.09375 -1.914062 2.132812 -2.003906 2.15625 -2.109375 C 2.1875 -2.210938 2.203125 -2.335938 2.203125 -2.484375 C 2.203125 -2.617188 2.191406 -2.734375 2.171875 -2.828125 C 2.148438 -2.929688 2.113281 -3.015625 2.0625 -3.078125 C 2.007812 -3.140625 1.945312 -3.1875 1.875 -3.21875 C 1.800781 -3.257812 1.707031 -3.28125 1.59375 -3.28125 L 1.390625 -3.28125 Z M 1.390625 -1.65625 "/></g></g></g><g fill="#2e2c3b" fill-opacity="1"><g transform="translate(40.423342, 77.802358)"><g><path d="M 3.65625 -1.796875 C 3.65625 -1.515625 3.617188 -1.257812 3.546875 -1.03125 C 3.472656 -0.8125 3.363281 -0.617188 3.21875 -0.453125 C 3.070312 -0.296875 2.894531 -0.171875 2.6875 -0.078125 C 2.476562 0.00390625 2.238281 0.046875 1.96875 0.046875 C 1.6875 0.046875 1.4375 0.00390625 1.21875 -0.078125 C 1.007812 -0.171875 0.832031 -0.296875 0.6875 -0.453125 C 0.550781 -0.617188 0.445312 -0.8125 0.375 -1.03125 C 0.3125 -1.257812 0.28125 -1.515625 0.28125 -1.796875 C 0.28125 -2.066406 0.3125 -2.316406 0.375 -2.546875 C 0.445312 -2.773438 0.550781 -2.96875 0.6875 -3.125 C 0.832031 -3.28125 1.007812 -3.398438 1.21875 -3.484375 C 1.4375 -3.578125 1.6875 -3.625 1.96875 -3.625 C 2.238281 -3.625 2.476562 -3.578125 2.6875 -3.484375 C 2.90625 -3.398438 3.082031 -3.28125 3.21875 -3.125 C 3.363281 -2.96875 3.472656 -2.773438 3.546875 -2.546875 C 3.617188 -2.316406 3.65625 -2.066406 3.65625 -1.796875 Z M 1.109375 -1.796875 C 1.109375 -1.554688 1.125 -1.34375 1.15625 -1.15625 C 1.1875 -0.96875 1.234375 -0.804688 1.296875 -0.671875 C 1.367188 -0.546875 1.457031 -0.445312 1.5625 -0.375 C 1.675781 -0.3125 1.8125 -0.28125 1.96875 -0.28125 C 2.125 -0.28125 2.253906 -0.3125 2.359375 -0.375 C 2.472656 -0.445312 2.5625 -0.546875 2.625 -0.671875 C 2.695312 -0.804688 2.742188 -0.96875 2.765625 -1.15625 C 2.796875 -1.34375 2.8125 -1.554688 2.8125 -1.796875 C 2.8125 -2.035156 2.796875 -2.242188 2.765625 -2.421875 C 2.742188 -2.609375 2.695312 -2.765625 2.625 -2.890625 C 2.5625 -3.023438 2.472656 -3.125 2.359375 -3.1875 C 2.253906 -3.257812 2.125 -3.296875 1.96875 -3.296875 C 1.8125 -3.296875 1.675781 -3.257812 1.5625 -3.1875 C 1.457031 -3.125 1.367188 -3.023438 1.296875 -2.890625 C 1.234375 -2.765625 1.1875 -2.609375 1.15625 -2.421875 C 1.125 -2.242188 1.109375 -2.035156 1.109375 -1.796875 Z M 1.109375 -1.796875 "/></g></g></g><g fill="#2e2c3b" fill-opacity="1"><g transform="translate(44.855852, 77.802358)"><g><path d="M 0.140625 -0.265625 L 0.34375 -0.265625 C 0.382812 -0.265625 0.421875 -0.265625 0.453125 -0.265625 C 0.484375 -0.273438 0.507812 -0.289062 0.53125 -0.3125 C 0.550781 -0.332031 0.566406 -0.363281 0.578125 -0.40625 C 0.597656 -0.445312 0.609375 -0.5 0.609375 -0.5625 L 0.609375 -3 C 0.609375 -3.0625 0.597656 -3.113281 0.578125 -3.15625 C 0.566406 -3.195312 0.550781 -3.226562 0.53125 -3.25 C 0.507812 -3.269531 0.484375 -3.285156 0.453125 -3.296875 C 0.421875 -3.304688 0.382812 -3.3125 0.34375 -3.3125 L 0.140625 -3.3125 L 0.140625 -3.5625 L 1.75 -3.5625 C 2.21875 -3.5625 2.5625 -3.484375 2.78125 -3.328125 C 3.007812 -3.171875 3.125 -2.941406 3.125 -2.640625 C 3.125 -2.515625 3.101562 -2.398438 3.0625 -2.296875 C 3.019531 -2.191406 2.96875 -2.097656 2.90625 -2.015625 C 2.84375 -1.941406 2.769531 -1.878906 2.6875 -1.828125 C 2.601562 -1.773438 2.519531 -1.734375 2.4375 -1.703125 L 3.03125 -0.671875 C 3.070312 -0.597656 3.113281 -0.535156 3.15625 -0.484375 C 3.195312 -0.429688 3.238281 -0.390625 3.28125 -0.359375 C 3.320312 -0.328125 3.363281 -0.300781 3.40625 -0.28125 C 3.445312 -0.269531 3.488281 -0.265625 3.53125 -0.265625 L 3.5625 -0.265625 L 3.5625 0 L 3.390625 0 C 3.242188 0 3.113281 -0.00390625 3 -0.015625 C 2.882812 -0.0234375 2.785156 -0.046875 2.703125 -0.078125 C 2.617188 -0.117188 2.546875 -0.164062 2.484375 -0.21875 C 2.421875 -0.28125 2.363281 -0.359375 2.3125 -0.453125 L 1.71875 -1.546875 L 1.390625 -1.546875 L 1.390625 -0.5625 C 1.390625 -0.5 1.394531 -0.445312 1.40625 -0.40625 C 1.425781 -0.363281 1.445312 -0.332031 1.46875 -0.3125 C 1.488281 -0.289062 1.515625 -0.273438 1.546875 -0.265625 C 1.578125 -0.265625 1.613281 -0.265625 1.65625 -0.265625 L 1.859375 -0.265625 L 1.859375 0 L 0.140625 0 Z M 1.390625 -1.84375 L 1.671875 -1.84375 C 1.785156 -1.84375 1.878906 -1.859375 1.953125 -1.890625 C 2.035156 -1.921875 2.097656 -1.960938 2.140625 -2.015625 C 2.191406 -2.078125 2.226562 -2.15625 2.25 -2.25 C 2.269531 -2.34375 2.28125 -2.453125 2.28125 -2.578125 C 2.28125 -2.703125 2.269531 -2.804688 2.25 -2.890625 C 2.226562 -2.984375 2.191406 -3.054688 2.140625 -3.109375 C 2.085938 -3.171875 2.019531 -3.210938 1.9375 -3.234375 C 1.863281 -3.265625 1.773438 -3.28125 1.671875 -3.28125 L 1.390625 -3.28125 Z M 1.390625 -1.84375 "/></g></g></g><g fill="#2e2c3b" fill-opacity="1"><g transform="translate(48.88827, 77.802358)"><g><path d="M 1.09375 -1.171875 L 0.9375 -0.75 C 0.925781 -0.707031 0.914062 -0.65625 0.90625 -0.59375 C 0.894531 -0.539062 0.890625 -0.492188 0.890625 -0.453125 C 0.890625 -0.421875 0.894531 -0.394531 0.90625 -0.375 C 0.914062 -0.351562 0.929688 -0.332031 0.953125 -0.3125 C 0.972656 -0.300781 0.992188 -0.289062 1.015625 -0.28125 C 1.046875 -0.269531 1.078125 -0.265625 1.109375 -0.265625 L 1.328125 -0.265625 L 1.328125 0 L 0.015625 0 L 0.015625 -0.265625 L 0.078125 -0.265625 C 0.117188 -0.265625 0.15625 -0.269531 0.1875 -0.28125 C 0.226562 -0.289062 0.265625 -0.304688 0.296875 -0.328125 C 0.335938 -0.359375 0.367188 -0.394531 0.390625 -0.4375 C 0.421875 -0.488281 0.453125 -0.550781 0.484375 -0.625 L 1.5625 -3.5625 L 2.25 -3.5625 L 3.296875 -0.625 C 3.316406 -0.550781 3.335938 -0.488281 3.359375 -0.4375 C 3.390625 -0.394531 3.421875 -0.359375 3.453125 -0.328125 C 3.492188 -0.304688 3.53125 -0.289062 3.5625 -0.28125 C 3.59375 -0.269531 3.628906 -0.265625 3.671875 -0.265625 L 3.765625 -0.265625 L 3.765625 0 L 2.109375 0 L 2.109375 -0.265625 L 2.3125 -0.265625 C 2.332031 -0.265625 2.351562 -0.265625 2.375 -0.265625 C 2.40625 -0.273438 2.429688 -0.285156 2.453125 -0.296875 C 2.472656 -0.316406 2.488281 -0.335938 2.5 -0.359375 C 2.519531 -0.390625 2.53125 -0.421875 2.53125 -0.453125 C 2.53125 -0.492188 2.523438 -0.53125 2.515625 -0.5625 C 2.503906 -0.601562 2.492188 -0.640625 2.484375 -0.671875 L 2.3125 -1.171875 Z M 1.9375 -2.296875 C 1.925781 -2.359375 1.910156 -2.421875 1.890625 -2.484375 C 1.867188 -2.546875 1.847656 -2.609375 1.828125 -2.671875 C 1.804688 -2.734375 1.785156 -2.796875 1.765625 -2.859375 C 1.753906 -2.929688 1.742188 -2.992188 1.734375 -3.046875 C 1.710938 -2.992188 1.691406 -2.9375 1.671875 -2.875 C 1.660156 -2.820312 1.640625 -2.765625 1.609375 -2.703125 C 1.585938 -2.640625 1.566406 -2.570312 1.546875 -2.5 C 1.523438 -2.4375 1.503906 -2.378906 1.484375 -2.328125 L 1.1875 -1.484375 L 2.203125 -1.484375 Z M 1.9375 -2.296875 "/></g></g></g><g fill="#2e2c3b" fill-opacity="1"><g transform="translate(53.150009, 77.802358)"><g><path d="M 2.03125 -0.59375 C 2.03125 -0.519531 2.035156 -0.460938 2.046875 -0.421875 C 2.054688 -0.378906 2.070312 -0.34375 2.09375 -0.3125 C 2.125 -0.289062 2.15625 -0.273438 2.1875 -0.265625 C 2.21875 -0.265625 2.25 -0.265625 2.28125 -0.265625 L 2.5 -0.265625 L 2.5 0 L 0.765625 0 L 0.765625 -0.265625 L 0.984375 -0.265625 C 1.015625 -0.265625 1.046875 -0.265625 1.078125 -0.265625 C 1.109375 -0.273438 1.132812 -0.289062 1.15625 -0.3125 C 1.1875 -0.34375 1.207031 -0.378906 1.21875 -0.421875 C 1.226562 -0.460938 1.234375 -0.519531 1.234375 -0.59375 L 1.234375 -3.265625 L 0.828125 -3.265625 C 0.753906 -3.265625 0.691406 -3.253906 0.640625 -3.234375 C 0.597656 -3.222656 0.554688 -3.203125 0.515625 -3.171875 C 0.484375 -3.140625 0.460938 -3.101562 0.453125 -3.0625 C 0.441406 -3.019531 0.429688 -2.96875 0.421875 -2.90625 L 0.390625 -2.59375 L 0.046875 -2.59375 L 0.078125 -3.5625 L 3.1875 -3.5625 L 3.21875 -2.59375 L 2.875 -2.59375 L 2.84375 -2.90625 C 2.832031 -2.96875 2.816406 -3.019531 2.796875 -3.0625 C 2.785156 -3.101562 2.765625 -3.140625 2.734375 -3.171875 C 2.703125 -3.203125 2.660156 -3.222656 2.609375 -3.234375 C 2.566406 -3.253906 2.503906 -3.265625 2.421875 -3.265625 L 2.03125 -3.265625 Z M 2.03125 -0.59375 "/></g></g></g><g fill="#2e2c3b" fill-opacity="1"><g transform="translate(56.911633, 77.802358)"><g><path d="M 0.140625 0 L 0.140625 -0.265625 L 0.34375 -0.265625 C 0.382812 -0.265625 0.421875 -0.265625 0.453125 -0.265625 C 0.484375 -0.273438 0.507812 -0.289062 0.53125 -0.3125 C 0.550781 -0.34375 0.566406 -0.378906 0.578125 -0.421875 C 0.597656 -0.460938 0.609375 -0.519531 0.609375 -0.59375 L 0.609375 -2.984375 C 0.609375 -3.054688 0.597656 -3.113281 0.578125 -3.15625 C 0.566406 -3.195312 0.550781 -3.226562 0.53125 -3.25 C 0.507812 -3.269531 0.484375 -3.28125 0.453125 -3.28125 C 0.421875 -3.289062 0.382812 -3.296875 0.34375 -3.296875 L 0.140625 -3.296875 L 0.140625 -3.5625 L 1.859375 -3.5625 L 1.859375 -3.296875 L 1.65625 -3.296875 C 1.625 -3.296875 1.585938 -3.289062 1.546875 -3.28125 C 1.515625 -3.28125 1.488281 -3.269531 1.46875 -3.25 C 1.445312 -3.226562 1.429688 -3.195312 1.421875 -3.15625 C 1.410156 -3.113281 1.40625 -3.054688 1.40625 -2.984375 L 1.40625 -0.59375 C 1.40625 -0.519531 1.410156 -0.460938 1.421875 -0.421875 C 1.429688 -0.378906 1.445312 -0.34375 1.46875 -0.3125 C 1.488281 -0.289062 1.515625 -0.273438 1.546875 -0.265625 C 1.585938 -0.265625 1.625 -0.265625 1.65625 -0.265625 L 1.859375 -0.265625 L 1.859375 0 Z M 0.140625 0 "/></g></g></g><g fill="#2e2c3b" fill-opacity="1"><g transform="translate(59.414436, 77.802358)"><g><path d="M 3.65625 -1.796875 C 3.65625 -1.515625 3.617188 -1.257812 3.546875 -1.03125 C 3.472656 -0.8125 3.363281 -0.617188 3.21875 -0.453125 C 3.070312 -0.296875 2.894531 -0.171875 2.6875 -0.078125 C 2.476562 0.00390625 2.238281 0.046875 1.96875 0.046875 C 1.6875 0.046875 1.4375 0.00390625 1.21875 -0.078125 C 1.007812 -0.171875 0.832031 -0.296875 0.6875 -0.453125 C 0.550781 -0.617188 0.445312 -0.8125 0.375 -1.03125 C 0.3125 -1.257812 0.28125 -1.515625 0.28125 -1.796875 C 0.28125 -2.066406 0.3125 -2.316406 0.375 -2.546875 C 0.445312 -2.773438 0.550781 -2.96875 0.6875 -3.125 C 0.832031 -3.28125 1.007812 -3.398438 1.21875 -3.484375 C 1.4375 -3.578125 1.6875 -3.625 1.96875 -3.625 C 2.238281 -3.625 2.476562 -3.578125 2.6875 -3.484375 C 2.90625 -3.398438 3.082031 -3.28125 3.21875 -3.125 C 3.363281 -2.96875 3.472656 -2.773438 3.546875 -2.546875 C 3.617188 -2.316406 3.65625 -2.066406 3.65625 -1.796875 Z M 1.109375 -1.796875 C 1.109375 -1.554688 1.125 -1.34375 1.15625 -1.15625 C 1.1875 -0.96875 1.234375 -0.804688 1.296875 -0.671875 C 1.367188 -0.546875 1.457031 -0.445312 1.5625 -0.375 C 1.675781 -0.3125 1.8125 -0.28125 1.96875 -0.28125 C 2.125 -0.28125 2.253906 -0.3125 2.359375 -0.375 C 2.472656 -0.445312 2.5625 -0.546875 2.625 -0.671875 C 2.695312 -0.804688 2.742188 -0.96875 2.765625 -1.15625 C 2.796875 -1.34375 2.8125 -1.554688 2.8125 -1.796875 C 2.8125 -2.035156 2.796875 -2.242188 2.765625 -2.421875 C 2.742188 -2.609375 2.695312 -2.765625 2.625 -2.890625 C 2.5625 -3.023438 2.472656 -3.125 2.359375 -3.1875 C 2.253906 -3.257812 2.125 -3.296875 1.96875 -3.296875 C 1.8125 -3.296875 1.675781 -3.257812 1.5625 -3.1875 C 1.457031 -3.125 1.367188 -3.023438 1.296875 -2.890625 C 1.234375 -2.765625 1.1875 -2.609375 1.15625 -2.421875 C 1.125 -2.242188 1.109375 -2.035156 1.109375 -1.796875 Z M 1.109375 -1.796875 "/></g></g></g><g fill="#2e2c3b" fill-opacity="1"><g transform="translate(63.846946, 77.802358)"><g><path d="M 2.9375 0 L 0.984375 -2.75 L 0.984375 -0.59375 C 0.984375 -0.519531 0.988281 -0.460938 1 -0.421875 C 1.007812 -0.378906 1.023438 -0.34375 1.046875 -0.3125 C 1.078125 -0.289062 1.109375 -0.273438 1.140625 -0.265625 C 1.171875 -0.265625 1.203125 -0.265625 1.234375 -0.265625 L 1.453125 -0.265625 L 1.453125 0 L 0.140625 0 L 0.140625 -0.265625 L 0.34375 -0.265625 C 0.382812 -0.265625 0.421875 -0.265625 0.453125 -0.265625 C 0.484375 -0.273438 0.507812 -0.289062 0.53125 -0.3125 C 0.550781 -0.34375 0.566406 -0.378906 0.578125 -0.421875 C 0.597656 -0.460938 0.609375 -0.519531 0.609375 -0.59375 L 0.609375 -3 C 0.609375 -3.0625 0.597656 -3.113281 0.578125 -3.15625 C 0.566406 -3.195312 0.550781 -3.226562 0.53125 -3.25 C 0.507812 -3.269531 0.484375 -3.285156 0.453125 -3.296875 C 0.421875 -3.304688 0.382812 -3.3125 0.34375 -3.3125 L 0.140625 -3.3125 L 0.140625 -3.5625 L 1.25 -3.5625 L 3.015625 -1.078125 L 3.015625 -3 C 3.015625 -3.0625 3.003906 -3.113281 2.984375 -3.15625 C 2.972656 -3.195312 2.957031 -3.226562 2.9375 -3.25 C 2.914062 -3.269531 2.890625 -3.285156 2.859375 -3.296875 C 2.828125 -3.304688 2.796875 -3.3125 2.765625 -3.3125 L 2.546875 -3.3125 L 2.546875 -3.5625 L 3.859375 -3.5625 L 3.859375 -3.3125 L 3.640625 -3.3125 C 3.609375 -3.3125 3.578125 -3.304688 3.546875 -3.296875 C 3.515625 -3.285156 3.488281 -3.269531 3.46875 -3.25 C 3.445312 -3.226562 3.425781 -3.195312 3.40625 -3.15625 C 3.394531 -3.113281 3.390625 -3.054688 3.390625 -2.984375 L 3.390625 0 Z M 2.9375 0 "/></g></g></g></svg>